<svg xmlns="http://www.w3.org/2000/svg" width="64" height="64" viewBox="0 0 64 64"><title>LeanDocs</title><style>@media (prefers-color-scheme: dark){.ld-card-1{fill:#1e3a8a}}</style><defs></defs><g transform="translate(7.79 9.35) scale(0.1745) skewY(-15.0)"><path class="ld-card-1" d="M36.0 0H164.0A36.0 36.0 0 0 1 200.0 36.0V264.0A36.0 36.0 0 0 1 164.0 300H36.0A36.0 36.0 0 0 1 0.0 264.0V36.0A36.0 36.0 0 0 1 36.0 0Z" fill="#1d4ed8"/><path class="ld-card-2" d="M113.5 34H217.5L277.5 94.0V298.0A36.0 36.0 0 0 1 241.5 334H113.5A36.0 36.0 0 0 1 77.5 298.0V70.0A36.0 36.0 0 0 1 113.5 34Z" fill="#3b82f6"/><path class="ld-fold" d="M217.5 34V82.0a12 12 0 0 0 12 12H277.5Z" fill="#bfdbfe"/><rect class="ld-bar" x="117.5" y="138.0" width="120.0" height="32.0" rx="16.0" fill="#ffffff"/><rect class="ld-bar" x="117.5" y="204.0" width="84.0" height="32.0" rx="16.0" fill="#ffffff"/></g></svg>
